<svg xmlns="http://www.w3.org/2000/svg" width="90" height="90" viewBox="0 0 90 90"><defs><style>.cls-1,.cls-2,.cls-3{fill:none;}.cls-1,.cls-2{stroke:#f8991c;stroke-width:1.5px;}.cls-2{stroke-linecap:round;}</style></defs><title>Member benefits_V2_</title><g id="Layer_3" data-name="Layer 3"><g id="_Group_" data-name="&lt;Group&gt;"><path id="_Path_" data-name="&lt;Path&gt;" class="cls-1" d="M78.52,46a3.6,3.6,0,0,0-3-4.12h0a3.6,3.6,0,0,0-4.12,3L69.26,58.41a3.6,3.6,0,0,0,3,4.12h0a3.59,3.59,0,0,0,4.11-3Z"/><path id="_Path_2" data-name="&lt;Path&gt;" class="cls-1" d="M20.64,58.41a3.6,3.6,0,0,1-3,4.12h0a3.6,3.6,0,0,1-4.12-3L11.38,46a3.6,3.6,0,0,1,3-4.12h0a3.59,3.59,0,0,1,4.11,3Z"/><path id="_Path_3" data-name="&lt;Path&gt;" class="cls-1" d="M14.81,37.44A30.36,30.36,0,0,1,45.16,7h0C62,7,75.07,20.64,75.07,37.44"/></g><path id="_Path_4" data-name="&lt;Path&gt;" class="cls-2" d="M74.4,81.68c0-.13-17.15-8.06-17.59-8.23-2.43-1.06-2.15-3-2.06-4.39C56.05,63,62.35,58,65.53,45.51,69.29,30.82,59.28,16,45.05,16H45C30.75,16,20.4,30.82,24.16,45.51,27.34,58,34,63,35.28,69.06c.1,1.44.11,3.33-2.06,4.39C30.72,75,16,81.82,15.89,81.94"/><rect class="cls-3" x="0.04" y="-0.02" width="90" height="90"/></g></svg>