<svg xmlns="http://www.w3.org/2000/svg" width="90" height="90" viewBox="0 0 90 90"><defs><style>.cls-1,.cls-2{fill:none;}.cls-1{stroke:#f8991c;stroke-width:1.5px;}</style></defs><title>Member benefits_V2_</title><g id="Layer_3" data-name="Layer 3"><path id="_Path_" data-name="&lt;Path&gt;" class="cls-1" d="M71.42,67.94c-.84,1-4.62-.83-5.56.06s.6,4.77-.44,5.55S61.11,71.7,60,72.34s-.49,4.79-1.68,5.31-3.77-2.78-5-2.41S51.71,79.79,50.43,80s-3-3.57-4.34-3.49-2.55,4.07-3.86,4-1.94-4.15-3.08-4.32S36,79.7,34.91,79.4s-1-4.45-2.13-4.86S29,77.31,28,76.79s-.1-4.57-1.08-5.19-4.25,1.93-5.16,1.2.84-4.48,0-5.3-4.56,1-5.3.13"/><path id="_Path_2" data-name="&lt;Path&gt;" class="cls-1" d="M13.55,25.71c.8-1.28,4.92-.18,5.87-1.34s-.9-5,.21-6,4.78,1.12,6,.25.44-5.06,1.78-5.76,4.31,2.34,5.74,1.82S34.9,9.9,36.39,9.58s3.53,3.39,5,3.27,2.93-4.12,4.46-4c1.37.07,2.28,4.18,3.61,4.41s3.58-3.33,4.87-3,1.22,4.6,2.45,5.14,4.28-2.38,5.44-1.69.08,4.75,1.15,5.57,4.72-1.3,5.69-.35-1.06,4.63-.2,5.69,4.88-.15,5.6,1"/><rect id="_Path_3" data-name="&lt;Path&gt;" class="cls-1" x="5.57" y="32.52" width="78.87" height="27.9"/><polyline id="_Path_4" data-name="&lt;Path&gt;" class="cls-1" points="26.68 39.73 17.7 39.73 17.76 54.87"/><polyline id="_Path_5" data-name="&lt;Path&gt;" class="cls-1" points="55.72 39.73 46.75 39.73 46.81 54.36 56.3 54.36"/><line id="_Path_6" data-name="&lt;Path&gt;" class="cls-1" x1="17.54" y1="47.13" x2="25.78" y2="47.13"/><path id="_Path_7" data-name="&lt;Path&gt;" class="cls-1" d="M31.39,47.58h5.46a4,4,0,0,0,4-4h0a4,4,0,0,0-4-3.95H31.22v15.2"/><line id="_Path_8" data-name="&lt;Path&gt;" class="cls-1" x1="37.55" y1="47.46" x2="41.26" y2="54.92"/><line id="_Path_9" data-name="&lt;Path&gt;" class="cls-1" x1="46.75" y1="46.74" x2="55.33" y2="46.74"/><g id="_Group_" data-name="&lt;Group&gt;"><polyline id="_Path_10" data-name="&lt;Path&gt;" class="cls-1" points="70.19 39.73 61.22 39.73 61.27 54.36 70.76 54.36"/><line id="_Path_11" data-name="&lt;Path&gt;" class="cls-1" x1="61.22" y1="46.74" x2="69.8" y2="46.74"/></g><rect class="cls-2" x="0.04" y="0.06" width="90" height="90"/></g></svg>