<svg xmlns="http://www.w3.org/2000/svg" width="90" height="90" viewBox="0 0 90 90"><defs><style>.cls-1,.cls-2{fill:none;}.cls-1{stroke:#f8991c;stroke-width:1.5px;}</style></defs><title>Member benefits_V2_</title><g id="Layer_3" data-name="Layer 3"><path class="cls-1" d="M43.79,25.2s0-.05,0-.07a1.28,1.28,0,0,0-.39-.92s0,0,0,0C41.45,21.79,33.36,12,12,11.61H12a1.29,1.29,0,0,0-1.29,1.29s0,.06,0,.09V69.47s0,0,0,.08A1.29,1.29,0,0,0,12,70.84a1,1,0,0,0,.17,0A45.16,45.16,0,0,1,41.49,79.5l.08,0a1.28,1.28,0,0,0,2.23-.88s0,0,0-.06Z"/><path class="cls-1" d="M49.6,20.87C54.48,17.09,62.05,12.08,77,11.8h.06a1.29,1.29,0,0,1,1.29,1.29s0,.06,0,.09V69.34s0,0,0,.08a1.29,1.29,0,0,1-1.29,1.29c-.06,0-.11,0-.17,0-4.14-.33-15.4.26-27.1,7.69"/><rect class="cls-2" x="0.04" y="0.06" width="90" height="90"/></g></svg>